<svg height="42" width="56" viewBox="0 0 136 100" xmlns="http://www.w3.org/2000/svg"><path d="m83 41.76q.55-1.79 2.8-9.58.55-2 2.8-8.1 2.25-6.25 3.59-10a46.79 46.79 0 0 0 -8 7c-9.72 10.47-21 23.13-25 29.76 1.52-.37 4.57-3.56 14.25-6.89a36.74 36.74 0 0 1 9.56-2.19zm-1.72 6.68c-30.62 0-44 48.82-65.22 48.82q-7.23 0-11.18-6.49a17.78 17.78 0 0 1 -2.53-9.46q.04-13.31 12.65-33.69 10.77-17.31 22.7-27.88 10.3-9.09 17.69-9.09a7.49 7.49 0 0 1 6.37 3 9.11 9.11 0 0 1 1.79 5.69q0 6-4 13.67a49.85 49.85 0 0 1 -8.76 11.88q-3.45 3.4-5.43 3.4a3.17 3.17 0 0 1 -2.36-1.29 3.13 3.13 0 0 1 -.8-2.1q0-2.16 3.76-4.95a35.66 35.66 0 0 0 8.45-8.66q4.59-6.85 4.59-11.55a4.16 4.16 0 0 0 -.83-2.85 3.2 3.2 0 0 0 -2.5-.93q-3.4 0-9.64 4.95a100.33 100.33 0 0 0 -15.03 15.16 105.24 105.24 0 0 0 -15.33 24q-5.43 12.25-5.43 20.93a10.7 10.7 0 0 0 2.4 7 7.8 7.8 0 0 0 6.48 3.28c9.7-.36 21.8-22.51 25.53-27.66 37-51.1 39.85-51.24 45.45-56.55q4.9-4.66 7.49-4.67a3.64 3.64 0 0 1 2.78 1.3 3.94 3.94 0 0 1 1 2.6 19.87 19.87 0 0 1 -1.73 6.06q-2.97 7.64-5.64 16.26-2.4 7.67-3.2 11.76a10.69 10.69 0 0 0 1.48-.06q1.79-.06 3-.06 3.58 0 3.58 2.72a4.12 4.12 0 0 1 -.77 2.32 3.08 3.08 0 0 1 -1.76 1.39 9.41 9.41 0 0 1 -2 .12 23.19 23.19 0 0 0 -5.23.43c-.44 1.3-1.56 12.3-3.23 12.68-5.15 4.5-4.76-10-4.48-11.47z" fill="#fff"/><g fill="#fff"><path d="m51 81.84a4.72 4.72 0 0 1 3.45 1.42 4.68 4.68 0 0 1 1.43 3.45 4.88 4.88 0 1 1 -9.77 0 4.86 4.86 0 0 1 4.89-4.87z"/><path d="m80.82 68.9-3.42 3.38a10.1 10.1 0 0 0 -7.56-3.43 8.64 8.64 0 0 0 -6.3 2.49 8.18 8.18 0 0 0 -2.54 6.07 8.39 8.39 0 0 0 2.64 6.25 9 9 0 0 0 6.5 2.56 8 8 0 0 0 4.24-1.06 7.46 7.46 0 0 0 2.78-3.31h-7.38v-4.54h12.83v1.08a12.47 12.47 0 0 1 -1.74 6.35 12.12 12.12 0 0 1 -4.5 4.58 12.83 12.83 0 0 1 -6.48 1.58 14.4 14.4 0 0 1 -7.09-1.73 12.64 12.64 0 0 1 -4.93-4.92 13.7 13.7 0 0 1 -1.81-6.89 12.78 12.78 0 0 1 3.35-8.81 13.21 13.21 0 0 1 10.39-4.46 15.77 15.77 0 0 1 6.2 1.23 14.29 14.29 0 0 1 4.79 3.58z"/><path d="m97.52 64.09a12.66 12.66 0 0 1 9.31 3.91 13 13 0 0 1 3.89 9.56 12.91 12.91 0 0 1 -3.83 9.44 13.32 13.32 0 0 1 -18.89-.08 13.41 13.41 0 0 1 9.51-22.83zm-.07 4.76a8 8 0 0 0 -5.93 2.46 8.6 8.6 0 0 0 -2.4 6.26 8.17 8.17 0 0 0 3 6.69 8.27 8.27 0 0 0 5.39 1.93 7.86 7.86 0 0 0 5.86-2.5 9 9 0 0 0 0-12.32 7.94 7.94 0 0 0 -5.93-2.52z"/><path d="m109.82 64.73h4.99l6.42 18.13 6.54-18.13h4.97l-9.21 25.52h-4.68z"/></g></svg>
